<svg width="232" height="125" viewBox="0 0 232 125" fill="none" xmlns="http://www.w3.org/2000/svg">
<path fill-rule="evenodd" clip-rule="evenodd" d="M117 81C94.9087 81 77 63.0913 77 41C77 18.9087 94.9087 1 117 1C139.091 1 157 18.9087 157 41C157 63.0913 139.091 81 117 81ZM116.783 20.4652C128.563 20.4652 132.613 28.3535 135.912 34.0248C140.607 42.0943 141.1 47.57 151.516 51.7935C152.652 46.313 152.652 46.9 152.652 40.7826C152.652 20.9726 136.593 4.91304 116.783 4.91304C96.9726 4.91304 80.913 20.9726 80.913 40.7826C80.913 45.8304 82.0213 51.7935 82.0213 51.7935C82.0213 51.7935 95.3943 39.1013 97.0952 34.7743C99.4978 28.663 105.003 20.4652 116.783 20.4652ZM117 31.1674C109.553 31.1674 103.447 45.09 101.813 48.4196C100.18 51.7496 94.603 59.4826 86.8978 61.4204C93.3248 71.08 104.31 77.4456 116.783 77.4456C129.151 77.4456 140.057 71.1857 146.506 61.6609C140.057 56.9748 136.662 55.0022 131.927 48.4196C128.017 42.983 124.447 31.1674 117 31.1674Z" fill="black"/>
<path d="M3.32 120V92H16.04C19.08 92 21.76 92.5867 24.08 93.76C26.4 94.9067 28.2133 96.52 29.52 98.6C30.8267 100.68 31.48 103.147 31.48 106C31.48 108.827 30.8267 111.293 29.52 113.4C28.2133 115.48 26.4 117.107 24.08 118.28C21.76 119.427 19.08 120 16.04 120H3.32ZM9.8 114.68H15.72C17.5867 114.68 19.2 114.333 20.56 113.64C21.9467 112.92 23.0133 111.907 23.76 110.6C24.5333 109.293 24.92 107.76 24.92 106C24.92 104.213 24.5333 102.68 23.76 101.4C23.0133 100.093 21.9467 99.0933 20.56 98.4C19.2 97.68 17.5867 97.32 15.72 97.32H9.8V114.68ZM35.1269 120V98.48H41.3669V120H35.1269ZM38.2469 95.48C37.1002 95.48 36.1669 95.1467 35.4469 94.48C34.7269 93.8133 34.3669 92.9867 34.3669 92C34.3669 91.0133 34.7269 90.1867 35.4469 89.52C36.1669 88.8533 37.1002 88.52 38.2469 88.52C39.3935 88.52 40.3269 88.84 41.0469 89.48C41.7669 90.0933 42.1269 90.8933 42.1269 91.88C42.1269 92.92 41.7669 93.7867 41.0469 94.48C40.3535 95.1467 39.4202 95.48 38.2469 95.48ZM52.1981 120L43.1581 98.48H49.5981L57.1181 117H53.9181L61.7181 98.48H67.7181L58.6381 120H52.1981ZM79.5584 120.32C77.1051 120.32 74.9451 119.84 73.0784 118.88C71.2384 117.92 69.8118 116.613 68.7984 114.96C67.7851 113.28 67.2784 111.373 67.2784 109.24C67.2784 107.08 67.7718 105.173 68.7584 103.52C69.7718 101.84 71.1451 100.533 72.8784 99.6C74.6118 98.64 76.5718 98.16 78.7584 98.16C80.8651 98.16 82.7584 98.6133 84.4384 99.52C86.1451 100.4 87.4918 101.68 88.4784 103.36C89.4651 105.013 89.9584 107 89.9584 109.32C89.9584 109.56 89.9451 109.84 89.9184 110.16C89.8918 110.453 89.8651 110.733 89.8384 111H72.3584V107.36H86.5584L84.1584 108.44C84.1584 107.32 83.9318 106.347 83.4784 105.52C83.0251 104.693 82.3984 104.053 81.5984 103.6C80.7984 103.12 79.8651 102.88 78.7984 102.88C77.7318 102.88 76.7851 103.12 75.9584 103.6C75.1584 104.053 74.5318 104.707 74.0784 105.56C73.6251 106.387 73.3984 107.373 73.3984 108.52V109.48C73.3984 110.653 73.6518 111.693 74.1584 112.6C74.6918 113.48 75.4251 114.16 76.3584 114.64C77.3184 115.093 78.4384 115.32 79.7184 115.32C80.8651 115.32 81.8651 115.147 82.7184 114.8C83.5984 114.453 84.3984 113.933 85.1184 113.24L88.4384 116.84C87.4518 117.96 86.2118 118.827 84.7184 119.44C83.2251 120.027 81.5051 120.32 79.5584 120.32ZM116.921 98.16C118.628 98.16 120.148 98.5067 121.481 99.2C122.841 99.8667 123.908 100.907 124.681 102.32C125.454 103.707 125.841 105.493 125.841 107.68V120H119.601V108.64C119.601 106.907 119.214 105.627 118.441 104.8C117.694 103.973 116.628 103.56 115.241 103.56C114.254 103.56 113.361 103.773 112.561 104.2C111.788 104.6 111.174 105.227 110.721 106.08C110.294 106.933 110.081 108.027 110.081 109.36V120H103.841V90.32H110.081V104.44L108.681 102.64C109.454 101.2 110.561 100.093 112.001 99.32C113.441 98.5467 115.081 98.16 116.921 98.16ZM143.897 120V115.8L143.497 114.88V107.36C143.497 106.027 143.084 104.987 142.257 104.24C141.457 103.493 140.217 103.12 138.537 103.12C137.391 103.12 136.257 103.307 135.137 103.68C134.044 104.027 133.111 104.507 132.337 105.12L130.097 100.76C131.271 99.9333 132.684 99.2933 134.337 98.84C135.991 98.3867 137.671 98.16 139.377 98.16C142.657 98.16 145.204 98.9333 147.017 100.48C148.831 102.027 149.737 104.44 149.737 107.72V120H143.897ZM137.337 120.32C135.657 120.32 134.217 120.04 133.017 119.48C131.817 118.893 130.897 118.107 130.257 117.12C129.617 116.133 129.297 115.027 129.297 113.8C129.297 112.52 129.604 111.4 130.217 110.44C130.857 109.48 131.857 108.733 133.217 108.2C134.577 107.64 136.351 107.36 138.537 107.36H144.257V111H139.217C137.751 111 136.737 111.24 136.177 111.72C135.644 112.2 135.377 112.8 135.377 113.52C135.377 114.32 135.684 114.96 136.297 115.44C136.937 115.893 137.804 116.12 138.897 116.12C139.937 116.12 140.871 115.88 141.697 115.4C142.524 114.893 143.124 114.16 143.497 113.2L144.457 116.08C144.004 117.467 143.177 118.52 141.977 119.24C140.777 119.96 139.231 120.32 137.337 120.32ZM160.034 120L150.994 98.48H157.434L164.954 117H161.754L169.554 98.48H175.554L166.474 120H160.034ZM187.394 120.32C184.941 120.32 182.781 119.84 180.914 118.88C179.074 117.92 177.648 116.613 176.634 114.96C175.621 113.28 175.114 111.373 175.114 109.24C175.114 107.08 175.608 105.173 176.594 103.52C177.608 101.84 178.981 100.533 180.714 99.6C182.448 98.64 184.408 98.16 186.594 98.16C188.701 98.16 190.594 98.6133 192.274 99.52C193.981 100.4 195.328 101.68 196.314 103.36C197.301 105.013 197.794 107 197.794 109.32C197.794 109.56 197.781 109.84 197.754 110.16C197.728 110.453 197.701 110.733 197.674 111H180.194V107.36H194.394L191.994 108.44C191.994 107.32 191.768 106.347 191.314 105.52C190.861 104.693 190.234 104.053 189.434 103.6C188.634 103.12 187.701 102.88 186.634 102.88C185.568 102.88 184.621 103.12 183.794 103.6C182.994 104.053 182.368 104.707 181.914 105.56C181.461 106.387 181.234 107.373 181.234 108.52V109.48C181.234 110.653 181.488 111.693 181.994 112.6C182.528 113.48 183.261 114.16 184.194 114.64C185.154 115.093 186.274 115.32 187.554 115.32C188.701 115.32 189.701 115.147 190.554 114.8C191.434 114.453 192.234 113.933 192.954 113.24L196.274 116.84C195.288 117.96 194.048 118.827 192.554 119.44C191.061 120.027 189.341 120.32 187.394 120.32ZM214.229 98.16C215.935 98.16 217.455 98.5067 218.789 99.2C220.149 99.8667 221.215 100.907 221.989 102.32C222.762 103.707 223.149 105.493 223.149 107.68V120H216.909V108.64C216.909 106.907 216.522 105.627 215.749 104.8C215.002 103.973 213.935 103.56 212.549 103.56C211.562 103.56 210.669 103.773 209.869 104.2C209.095 104.6 208.482 105.227 208.029 106.08C207.602 106.933 207.389 108.027 207.389 109.36V120H201.149V98.48H207.109V104.44L205.989 102.64C206.762 101.2 207.869 100.093 209.309 99.32C210.749 98.5467 212.389 98.16 214.229 98.16Z" fill="black"/>
</svg>
