<svg width="171" height="92" viewBox="0 0 171 92" fill="none" xmlns="http://www.w3.org/2000/svg">
<path fill-rule="evenodd" clip-rule="evenodd" d="M86.3599 59.6161C70.1007 59.6161 56.9199 46.4353 56.9199 30.1761C56.9199 13.9169 70.1007 0.736084 86.3599 0.736084C102.619 0.736084 115.8 13.9169 115.8 30.1761C115.8 46.4353 102.619 59.6161 86.3599 59.6161ZM86.1999 15.0625C94.87 15.0625 97.8511 20.8682 100.279 25.0423C103.735 30.9815 104.097 35.0116 111.764 38.1201C112.6 34.0865 112.6 34.5185 112.6 30.0161C112.6 15.4359 100.78 3.61608 86.1999 3.61608C71.6198 3.61608 59.7999 15.4359 59.7999 30.0161C59.7999 33.7313 60.6156 38.1201 60.6156 38.1201C60.6156 38.1201 70.4582 28.7786 71.71 25.594C73.4783 21.0961 77.5298 15.0625 86.1999 15.0625ZM86.3599 22.9393C80.879 22.9393 76.3846 33.1863 75.1826 35.6369C73.9807 38.0878 69.8758 43.7793 64.2047 45.2055C68.935 52.315 77.0204 57.0001 86.1999 57.0001C95.3033 57.0001 103.33 52.3927 108.076 45.3825C103.33 41.9335 100.831 40.4817 97.3465 35.6369C94.4684 31.6356 91.8409 22.9393 86.3599 22.9393Z" fill="black"/>
<path d="M2.69157 88.616V68.008H12.0535C14.2909 68.008 16.2634 68.4398 17.9709 69.3033C19.6784 70.1473 21.0131 71.3347 21.9748 72.8656C22.9365 74.3964 23.4173 76.2119 23.4173 78.312C23.4173 80.3924 22.9365 82.2079 21.9748 83.7584C21.0131 85.2892 19.6784 86.4865 17.9709 87.35C16.2634 88.194 14.2909 88.616 12.0535 88.616H2.69157ZM7.46085 84.7004H11.818C13.1918 84.7004 14.3792 84.4453 15.3802 83.935C16.4008 83.4051 17.1859 82.6593 17.7354 81.6976C18.3046 80.7359 18.5892 79.6073 18.5892 78.312C18.5892 76.997 18.3046 75.8684 17.7354 74.9264C17.1859 73.9647 16.4008 73.2287 15.3802 72.7184C14.3792 72.1884 13.1918 71.9235 11.818 71.9235H7.46085V84.7004ZM26.1014 88.616V72.7772H30.6941V88.616H26.1014ZM28.3977 70.5692C27.5538 70.5692 26.8669 70.3239 26.3369 69.8332C25.807 69.3426 25.5421 68.7342 25.5421 68.008C25.5421 67.2818 25.807 66.6734 26.3369 66.1827C26.8669 65.692 27.5538 65.4467 28.3977 65.4467C29.2417 65.4467 29.9286 65.6822 30.4585 66.1532C30.9885 66.6047 31.2534 67.1935 31.2534 67.9196C31.2534 68.6851 30.9885 69.323 30.4585 69.8332C29.9483 70.3239 29.2613 70.5692 28.3977 70.5692ZM38.6659 88.616L32.0124 72.7772H36.7523L42.287 86.408H39.9318L45.6726 72.7772H50.0886L43.4057 88.616H38.6659ZM58.8031 88.8515C56.9974 88.8515 55.4076 88.4982 54.0338 87.7916C52.6795 87.0851 51.6295 86.1234 50.8837 84.9065C50.1379 83.67 49.765 82.2667 49.765 80.6966C49.765 79.1068 50.1281 77.7035 50.8543 76.4867C51.6001 75.2502 52.6108 74.2885 53.8866 73.6016C55.1623 72.895 56.6049 72.5417 58.2143 72.5417C59.7648 72.5417 61.1583 72.8754 62.3947 73.5427C63.6508 74.1904 64.642 75.1324 65.3682 76.3689C66.0944 77.5858 66.4575 79.048 66.4575 80.7555C66.4575 80.9321 66.4476 81.1382 66.428 81.3737C66.4084 81.5896 66.3888 81.7957 66.3691 81.992H53.5039V79.3129H63.9551L62.1887 80.1078C62.1887 79.2835 62.0218 78.5671 61.6882 77.9587C61.3545 77.3503 60.8933 76.8792 60.3045 76.5456C59.7157 76.1923 59.0288 76.0156 58.2437 76.0156C57.4586 76.0156 56.7619 76.1923 56.1535 76.5456C55.5647 76.8792 55.1034 77.3601 54.7698 77.9881C54.4361 78.5966 54.2693 79.3227 54.2693 80.1667V80.8732C54.2693 81.7368 54.4557 82.5023 54.8287 83.1696C55.2212 83.8172 55.7609 84.3177 56.4479 84.671C57.1544 85.0047 57.9787 85.1715 58.9208 85.1715C59.7648 85.1715 60.5008 85.0439 61.1288 84.7888C61.7765 84.5336 62.3653 84.1509 62.8952 83.6406L65.3387 86.2902C64.6125 87.1145 63.6999 87.7524 62.6008 88.2038C61.5017 88.6356 60.2358 88.8515 58.8031 88.8515ZM86.3019 72.5417C87.558 72.5417 88.6767 72.7969 89.658 73.3072C90.659 73.7978 91.444 74.5633 92.0132 75.6035C92.5824 76.6241 92.867 77.9391 92.867 79.5484V88.616H88.2743V80.255C88.2743 78.9793 87.9897 78.0372 87.4206 77.4288C86.871 76.8203 86.086 76.5161 85.0654 76.5161C84.3392 76.5161 83.6817 76.6731 83.0929 76.9872C82.5237 77.2816 82.0723 77.7428 81.7387 78.3708C81.4246 78.9989 81.2676 79.8036 81.2676 80.7849V88.616H76.675V66.7715H81.2676V77.1638L80.2372 75.839C80.8064 74.7792 81.6209 73.9647 82.6807 73.3955C83.7406 72.8263 84.9476 72.5417 86.3019 72.5417ZM106.156 88.616V85.5248L105.862 84.8476V79.3129C105.862 78.3316 105.558 77.5662 104.949 77.0166C104.361 76.4671 103.448 76.1923 102.211 76.1923C101.367 76.1923 100.533 76.3297 99.709 76.6044C98.9043 76.8596 98.2174 77.2129 97.6482 77.6643L95.9996 74.4553C96.8631 73.8469 97.9034 73.3759 99.1202 73.0422C100.337 72.7086 101.574 72.5417 102.83 72.5417C105.244 72.5417 107.118 73.1109 108.453 74.2492C109.787 75.3876 110.455 77.1638 110.455 79.5779V88.616H106.156ZM101.328 88.8515C100.092 88.8515 99.0319 88.6454 98.1487 88.2332C97.2655 87.8015 96.5884 87.2225 96.1173 86.4963C95.6463 85.7701 95.4108 84.9556 95.4108 84.0528C95.4108 83.1107 95.6365 82.2864 96.0879 81.5798C96.5589 80.8732 97.2949 80.3237 98.2959 79.9312C99.2969 79.519 100.602 79.3129 102.211 79.3129H106.421V81.992H102.712C101.632 81.992 100.887 82.1686 100.474 82.5219C100.082 82.8752 99.8857 83.3168 99.8857 83.8467C99.8857 84.4355 100.111 84.9065 100.563 85.2598C101.034 85.5935 101.672 85.7603 102.476 85.7603C103.242 85.7603 103.929 85.5836 104.537 85.2304C105.146 84.8575 105.587 84.3177 105.862 83.6112L106.569 85.7308C106.235 86.7514 105.626 87.5267 104.743 88.0566C103.86 88.5865 102.722 88.8515 101.328 88.8515ZM118.033 88.616L111.38 72.7772H116.12L121.654 86.408H119.299L125.04 72.7772H129.456L122.773 88.616H118.033ZM138.17 88.8515C136.365 88.8515 134.775 88.4982 133.401 87.7916C132.047 87.0851 130.997 86.1234 130.251 84.9065C129.505 83.67 129.132 82.2667 129.132 80.6966C129.132 79.1068 129.495 77.7035 130.221 76.4867C130.967 75.2502 131.978 74.2885 133.254 73.6016C134.53 72.895 135.972 72.5417 137.581 72.5417C139.132 72.5417 140.526 72.8754 141.762 73.5427C143.018 74.1904 144.009 75.1324 144.735 76.3689C145.462 77.5858 145.825 79.048 145.825 80.7555C145.825 80.9321 145.815 81.1382 145.795 81.3737C145.776 81.5896 145.756 81.7957 145.736 81.992H132.871V79.3129H143.322L141.556 80.1078C141.556 79.2835 141.389 78.5671 141.055 77.9587C140.722 77.3503 140.261 76.8792 139.672 76.5456C139.083 76.1923 138.396 76.0156 137.611 76.0156C136.826 76.0156 136.129 76.1923 135.521 76.5456C134.932 76.8792 134.471 77.3601 134.137 77.9881C133.803 78.5966 133.637 79.3227 133.637 80.1667V80.8732C133.637 81.7368 133.823 82.5023 134.196 83.1696C134.588 83.8172 135.128 84.3177 135.815 84.671C136.522 85.0047 137.346 85.1715 138.288 85.1715C139.132 85.1715 139.868 85.0439 140.496 84.7888C141.144 84.5336 141.733 84.1509 142.262 83.6406L144.706 86.2902C143.98 87.1145 143.067 87.7524 141.968 88.2038C140.869 88.6356 139.603 88.8515 138.17 88.8515ZM157.92 72.5417C159.177 72.5417 160.295 72.7969 161.277 73.3072C162.278 73.7978 163.063 74.5633 163.632 75.6035C164.201 76.6241 164.486 77.9391 164.486 79.5484V88.616H159.893V80.255C159.893 78.9793 159.608 78.0372 159.039 77.4288C158.49 76.8203 157.705 76.5161 156.684 76.5161C155.958 76.5161 155.3 76.6731 154.711 76.9872C154.142 77.2816 153.691 77.7428 153.357 78.3708C153.043 78.9989 152.886 79.8036 152.886 80.7849V88.616H148.294V72.7772H152.68V77.1638L151.856 75.839C152.425 74.7792 153.239 73.9647 154.299 73.3955C155.359 72.8263 156.566 72.5417 157.92 72.5417Z" fill="black"/>
</svg>
