<svg width="34" height="34" viewBox="0 0 34 34" fill="none" xmlns="http://www.w3.org/2000/svg">
<path d="M16.6667 4.16667C18.9583 4.16667 20.8333 6.04167 20.8333 8.33333C20.8333 10.625 18.9583 12.5 16.6667 12.5C14.375 12.5 12.5 10.625 12.5 8.33333C12.5 6.04167 14.375 4.16667 16.6667 4.16667ZM16.6667 25C22.2917 25 28.75 27.6875 29.1667 29.1667H4.16667C4.64583 27.6667 11.0625 25 16.6667 25ZM16.6667 0C12.0625 0 8.33333 3.72917 8.33333 8.33333C8.33333 12.9375 12.0625 16.6667 16.6667 16.6667C21.2708 16.6667 25 12.9375 25 8.33333C25 3.72917 21.2708 0 16.6667 0ZM16.6667 20.8333C11.1042 20.8333 0 23.625 0 29.1667V33.3333H33.3333V29.1667C33.3333 23.625 22.2292 20.8333 16.6667 20.8333Z" fill="black"/>
</svg>
