<svg width="46" height="40" viewBox="0 0 46 40" fill="none" xmlns="http://www.w3.org/2000/svg">
<path d="M32.7656 0.46875C28.8418 0.46875 25.3594 2.01758 23 4.67969C20.6406 2.01758 17.1582 0.46875 13.2344 0.46875C9.81684 0.472885 6.54046 1.83233 4.12389 4.24889C1.70733 6.66546 0.347885 9.94184 0.34375 13.3594C0.34375 27.4883 21.0098 38.7773 21.8887 39.252C22.2302 39.4359 22.6121 39.5322 23 39.5322C23.3879 39.5322 23.7698 39.4359 24.1113 39.252C24.9902 38.7773 45.6562 27.4883 45.6562 13.3594C45.6521 9.94184 44.2927 6.66546 41.8761 4.24889C39.4595 1.83233 36.1832 0.472885 32.7656 0.46875ZM31.6934 28.2734C28.9732 30.5817 26.0653 32.6592 23 34.4844C19.9347 32.6592 17.0268 30.5817 14.3066 28.2734C10.0742 24.6426 5.03125 19.1055 5.03125 13.3594C5.03125 11.1838 5.89551 9.09727 7.43389 7.55889C8.97227 6.02051 11.0588 5.15625 13.2344 5.15625C16.7109 5.15625 19.6211 6.99219 20.8301 9.94922C21.006 10.3803 21.3064 10.7492 21.6929 11.0088C22.0793 11.2685 22.5344 11.4072 23 11.4072C23.4656 11.4072 23.9207 11.2685 24.3071 11.0088C24.6936 10.7492 24.994 10.3803 25.1699 9.94922C26.3789 6.99219 29.2891 5.15625 32.7656 5.15625C34.9412 5.15625 37.0277 6.02051 38.5661 7.55889C40.1045 9.09727 40.9687 11.1838 40.9688 13.3594C40.9688 19.1055 35.9258 24.6426 31.6934 28.2734Z" fill="black"/>
</svg>
