<svg width="44" height="41" viewBox="0 0 44 41" fill="none" xmlns="http://www.w3.org/2000/svg">
<path d="M39.1875 9.71874H32.123C31.9169 7.17552 30.761 4.80308 28.8853 3.07327C27.0096 1.34347 24.5516 0.383057 22 0.383057C19.4484 0.383057 16.9904 1.34347 15.1147 3.07327C13.239 4.80308 12.0831 7.17552 11.877 9.71874H4.8125C3.7765 9.71874 2.78293 10.1303 2.05036 10.8629C1.3178 11.5954 0.90625 12.589 0.90625 13.625V37.0625C0.90625 38.0985 1.3178 39.0921 2.05036 39.8246C2.78293 40.5572 3.7765 40.9687 4.8125 40.9687H39.1875C40.2235 40.9687 41.2171 40.5572 41.9496 39.8246C42.6822 39.0921 43.0938 38.0985 43.0938 37.0625V13.625C43.0938 12.589 42.6822 11.5954 41.9496 10.8629C41.2171 10.1303 40.2235 9.71874 39.1875 9.71874ZM22 5.03124C23.315 5.03137 24.5858 5.50529 25.5798 6.36618C26.5738 7.22707 27.2243 8.41727 27.4121 9.71874H16.5879C16.7757 8.41727 17.4262 7.22707 18.4202 6.36618C19.4142 5.50529 20.685 5.03137 22 5.03124ZM38.4062 36.2812H5.59375V14.4062H11.8438V16.75C11.8438 17.3716 12.0907 17.9677 12.5302 18.4073C12.9698 18.8468 13.5659 19.0937 14.1875 19.0937C14.8091 19.0937 15.4052 18.8468 15.8448 18.4073C16.2843 17.9677 16.5312 17.3716 16.5312 16.75V14.4062H27.4688V16.75C27.4688 17.3716 27.7157 17.9677 28.1552 18.4073C28.5948 18.8468 29.1909 19.0937 29.8125 19.0937C30.4341 19.0937 31.0302 18.8468 31.4698 18.4073C31.9093 17.9677 32.1562 17.3716 32.1562 16.75V14.4062H38.4062V36.2812Z" fill="black"/>
</svg>
